<?xml version="1.0" encoding="UTF-8"?>
<svg id="_圖層_4" data-name="圖層 4" xmlns="http://www.w3.org/2000/svg" viewBox="0 0 1000 1000">
  <defs>
    <style>
      .cls-1, .cls-2 {
        fill: #79a6cb;
      }

      .cls-1, .cls-2, .cls-3, .cls-4, .cls-5, .cls-6, .cls-7, .cls-8, .cls-9 {
        stroke-width: 12px;
      }

      .cls-1, .cls-2, .cls-4, .cls-5, .cls-6, .cls-7, .cls-8 {
        stroke: #231815;
      }

      .cls-1, .cls-4, .cls-5, .cls-7, .cls-8 {
        stroke-miterlimit: 10;
      }

      .cls-10 {
        fill: #4e78a7;
      }

      .cls-2, .cls-3, .cls-6, .cls-9 {
        stroke-linecap: round;
        stroke-linejoin: round;
      }

      .cls-3 {
        stroke: #5d3932;
      }

      .cls-3, .cls-6, .cls-8, .cls-9 {
        fill: none;
      }

      .cls-4 {
        fill: #86523c;
      }

      .cls-11 {
        fill: #c0e5f8;
      }

      .cls-5 {
        fill: #231815;
      }

      .cls-12 {
        fill: #ef8371;
      }

      .cls-7 {
        fill: #f7caa8;
      }

      .cls-13 {
        fill: #5883b3;
      }

      .cls-14 {
        fill: #492c2a;
      }

      .cls-9 {
        stroke: #c8a58b;
      }
    </style>
  </defs>
  <path class="cls-1" d="M397.52,842.96c2.64-1.47,5.83-.39,6.85-.07,12.81,4.09,49.59,5.16,98.35,6.57,5.83.17,15.71-.08,35.48-.57,38.37-.96,75.52-3,75.52-3,0,0,1.47,11.9,3.65,19.57,1.01,3.55,5.02,17.64,16.17,25.7,2.1,1.52,6.25,4.11,25.83,6.52,17.94,2.21,30.59,3.76,47.61,1.04,11.52-1.84,20.28-3.24,29.48-9.65,9.82-6.85,14.76-15.65,17.61-21.13,14.48-27.89,21.78-60.41,24.91-74.74,5.3-24.19,7.98-49.05,14.74-98.48,1.9-13.92,2.77-20.72,4.96-31.5,3.76-18.52,6.49-24.41,7.96-38.09,1.23-11.47.65-19.76-.13-30.78-2.02-28.62-8.31-50.76-10.57-58.24-6.23-20.72-9.68-22.87-13.7-41.48-3.18-14.75-3.73-26.05-4.04-31.83,0,0-1.31-24.4-8.09-91.57-2.04-20.22-8.17-75.41-41.48-131.48-24.48-41.22-53.18-65.29-60.78-71.48-9.26-7.53-49.45-39.15-112.17-52.96-23.2-5.11-97.61-18.38-178.17,18.78-44.43,20.49-74.58,48.88-92.35,69.13-31.55,35.96-45.54,70.77-53.48,91.04-.9,2.29-22.41,58.17-24,109.57-.11,3.42-1.19,41.1-2.35,62.35-.06,1.05-1.04,19.04-1.04,19.04,0,0-11.76,19.29-17.74,30-5.5,9.86-15.8,28.57-22.17,52.17-5.49,20.32-9.25,34.27-5.74,52.17,6.62,33.73,33.54,53.38,36.26,55.3,0,0,4.15,2.94,32.09,18.26,0,0,1.53,28.64,2.35,39.91,1.75,24.11,5.95,42.42,14.35,79.04,7.83,34.17,12.39,46.85,21.65,59.74,7.67,10.68,14.4,15.72,19.83,18.78,3.96,2.23,12.94,6.63,36.52,7.04,30.38.53,49.1.85,58.88-11.49,11.58-14.62,12.6-30.25,12.6-30.25.24-3.61.22-10.66,4.37-12.98Z"/>
  <path class="cls-10" d="M235.72,716.96c7.64,7.86,28.78,9.68,37.57,10.43,1.97.17,6.9.53,13.04,2.61,6.69,2.27,11.17,5.35,12.52,6.26,14.44,9.68,56.04,28.63,78.26,37.57,24.76,9.96,37.14,14.94,52.17,15.65,13.27.63,26.42-2.87,52.17-9.91,36.1-9.87,65.18-21.59,76.7-26.27,5.3-2.15,28.69-11.75,28.7-11.75,0,0,23.67,7.53,26.09,8.28,30.25,9.45,72.8,1.51,80.87,0,41.99-7.83,66.4-23.47,78.78-32.87,10.61-8.05,15.59-14.09,18.02-21.69,1.27-3.96,4.2-13.12-.09-19.79-1.1-1.7-1.98-2.18-13.17-14.24-.35-.38-.57-.61-.59-.63-31.76-33.88-133.03,54.13-261.91,60.52-141.3,7.01-245.09-87.58-275.48-49.04-8.89,11.27-12.74,35.52-3.65,44.87Z"/>
  <path class="cls-6" d="M294.93,552.15c57.14,27.95,96.34,48.02,109.57,57.13,2.49,1.72,10.44,7.44,21.13,7.43,8.13,0,14.17-3.32,16.04-4.3,13.13-6.89,62.54-25.59,138.91-53.22"/>
  <path class="cls-4" d="M441.67,567.8c-16.08-1.21-26.7-5.18-47.35-12.91-35.13-13.15-50.9-26.58-82.57-29.74-8.29-.83-17.3-.91-23.87,4.7-4.03,3.44-6.98,8.88-9.39,28.17-2.55,20.43-1.96,34.43-1.96,34.43,0,61.81-11.56,95.09,8.22,109.96,1.77,1.33,4.19,2.79,7.43,3.91,4.52,2.24,11.46,5.67,19.96,9.78,30.3,14.67,48.79,22.37,84.52,37.17,17.56,7.27,23.93,9.7,33.65,9.78,13.74.12,21.58-4.53,36.28-10.44,11.03-4.44,4.07-.8,73.67-20.47,34.59-9.78,39.78-11.59,45-18,5.63-6.92,7.22-21.66,10.17-50.87.37-3.62,2.77-28.29,1.24-57.91-.21-4-.75-13.29-4.37-24.65-2.98-9.37-5.36-16.83-11.74-21.52-6.9-5.07-14.8-4.19-28.96-2.74-14.73,1.51-29.57,2.1-44.22,4.3-35.44,5.32-53.16,7.99-65.74,7.04Z"/>
  <path class="cls-14" d="M294.93,549.02c1.47-4.46,24.43-.52,27.39,0,21.82,3.84,31.74,11.23,57.13,21.52,29.77,12.07,44.93,18.12,58.3,18.78,14.47.72,23.32-2.12,43.83-7.43,53.68-13.91,80.73-20.04,81.39-18.39,1.88,4.7-71.98,28.69-117,50.48-5.59,2.7-13.54,5.44-23.87,5.09-18.13-.63-23.71-11.2-52.76-27.33-17.22-9.56-19.47-8.18-44.67-21.98-16.84-9.22-30.96-17.04-29.74-20.74Z"/>
  <line class="cls-3" x1="425.24" y1="741.54" x2="425.24" y2="633.54"/>
  <path class="cls-2" d="M239.5,537.67c-.5,6.51-.39,17.05,4.17,28.7.65,1.66,11.04,27.23,35.48,36.52,7.53,2.86,9.32,1.49,20.87,5.61,13.17,4.7,19.86,6.75,24.65,12.13,9.98,11.22,7.37,27.87,6.65,32.48-2.41,15.36-11.53,25.33-15.26,28.96-17.43,16.94-41.81,16.62-56.35,16.43-13.07-.17-25.58-3.23-32.74-5.35"/>
  <path class="cls-2" d="M717.93,540.41c-1.24,6.95-4.02,17.58-10.96,28.57-13.35,21.14-33.51,29.97-45,34.83-14.67,6.19-31.43,8.96-64.96,14.48-19.85,3.27-29.36,4.06-38.35,12.52-1.26,1.18-13.71,13.28-12.91,30.52.82,17.65,14.96,28.89,25.43,37.22,11.82,9.4,24.77,15.12,39.91,19.13,53.79,14.24,101.19-2.19,104.87-3.52,41.75-15.08,69.29-40.55,79.57-53.54"/>
  <g>
    <path class="cls-5" d="M467.57,500.94c-3.55.26-9.76.89-25.84,5.15-28.75,7.63-30.35,11.31-42.52,11.54-4.53.09-19.1.37-29.75-7.52-12.83-9.5-12.26-25.16-11.94-33.92,1.24-33.95,30.27-56.97,35.82-61.37,9.04-7.17,26.02-18.37,51.11-23.95,26.98-6.01,49.06-2.34,56.5-.88,34.29,6.72,54.26,24.71,60.81,30.78,4.83,4.47,14.3,14.06,21.51,28.21,5.35,10.51,12.09,23.75,8.38,39.98-1.47,6.41-4.47,19.58-17.11,26.23-17.67,9.29-43.65.29-52.58-2.8-11.37-3.94-14.13-7.23-26.81-9.79-3.95-.8-14.26-2.62-27.58-1.65Z"/>
    <path class="cls-12" d="M426.23,511.19c-10.27,3.11-20.63,6.12-31.28,2.8-2.77-.86-4.4-1.39-5.59-2.8-6.78-8.04,12.52-31.32,34.07-44.73,6.06-3.78,20.65-12.59,41.89-14.71,3.24-.32,13.68-1.19,26.81.93,4.57.74,12.53,2.08,21.79,6.06,10.49,4.51,17.07,10.02,22.62,14.69,5.05,4.24,8.9,8.22,11.73,11.43,8.44,9.56,15.78,18.14,13.41,27.73-.58,2.36-.88,3.54-1.96,4.43-6.95,5.73-26.81-8.23-63.12-15.15-10.99-2.1-16.48-3.14-24.3-2.8-7.62.34-11.62,1.68-46.08,12.12Z"/>
    <path class="cls-8" d="M467.57,500.94c-3.55.26-9.76.89-25.84,5.15-28.75,7.63-30.35,11.31-42.52,11.54-4.53.09-19.1.37-29.75-7.52-12.83-9.5-12.26-25.16-11.94-33.92,1.24-33.95,30.27-56.97,35.82-61.37,9.04-7.17,26.02-18.37,51.11-23.95,26.98-6.01,49.06-2.34,56.5-.88,34.29,6.72,54.26,24.71,60.81,30.78,4.83,4.47,14.3,14.06,21.51,28.21,5.35,10.51,12.09,23.75,8.38,39.98-1.47,6.41-4.47,19.58-17.11,26.23-17.67,9.29-43.65.29-52.58-2.8-11.37-3.94-14.13-7.23-26.81-9.79-3.95-.8-14.26-2.62-27.58-1.65Z"/>
  </g>
  <path class="cls-6" d="M549.93,259.2c1.71,5.86,5.99,17.43,16.7,27.65,16.45,15.7,36.35,17.03,41.74,17.22"/>
  <path class="cls-6" d="M412.72,261.8c-.97,5.31-3.65,15.49-12,24.52-17.41,18.83-43.61,15.53-46.43,15.13"/>
  <path class="cls-6" d="M331.85,334.33c1.37,2.24,10.97,17.33,29.22,19.83,16.79,2.3,34.03-7.02,42.78-23.48"/>
  <path class="cls-6" d="M552.02,328.07c1.44,2.57,13.11,22.49,37.57,26.43,27.44,4.43,46.09-15.27,47.48-16.78"/>
  <path class="cls-11" d="M644.88,376.16c3.85,10.31,12.39,33.18,1.45,46.73-1.1,1.36-5.83,7.22-12.94,7.57-6,.3-10.54-3.49-11.32-4.17-12.49-10.82-4.39-38.23-1.04-49.57,2.69-9.09,5.87-19.85,10.96-20.09,5.51-.26,10.07,11.96,12.9,19.53Z"/>
  <g>
    <ellipse class="cls-13" cx="559.55" cy="197.7" rx="16.66" ry="12.52"/>
    <path class="cls-13" d="M596.86,126.74c-1.24-1.69-4.54-2.82-11.15-5.09-6.28-2.16-10.77-3.06-16.04-4.3-9.5-2.25-14.18-3.88-18-4.89-20.13-5.31-47.57-1.67-51.25,2.47-3.41-.97-6.9-1.5-10.38-1.5-1.96,0-3.9.17-5.81.49-16.19.46-50.52,6.45-66.02,10.66-7.14,1.94-9.93,3.41-18,4.89-5.14.94-9.9,1.42-16.04,4.3-3.64,1.71-5.47,2.56-7.01,4.27-6.1,6.71-3.94,19.89,1.76,28.15.65.95,4.2,5.95,10.96,9.26,6.38,3.12,12.11,3.01,16.76,2.87,12.57-.39,21.73-5.42,25.89-7.76,2.44-1.38,9.41-5.53,16.29-13.26,1.07,20.85,20.18,37.45,41.26,37.45s43.79-17.59,43.79-39.29c0-1.24-.08-2.47-.22-3.7,5.1,5.56,15.49,14.49,29.6,14.43,8.92-.04,15.3-3.54,16.83-4.42,14.42-8.29,22.25-27.63,16.79-35.04Z"/>
    <path class="cls-13" d="M444.69,205.44c0,6.92-8.41,13.5-17.61,13.5s-13.4-4.33-13.4-11.25,6.45-14.28,15.65-14.28,15.36,5.12,15.36,12.03Z"/>
  </g>
  <path class="cls-8" d="M397.52,842.96c2.64-1.47,5.83-.39,6.85-.07,12.81,4.09,49.59,5.16,98.35,6.57,5.83.17,15.71-.08,35.48-.57,38.37-.96,75.52-3,75.52-3,0,0,1.47,11.9,3.65,19.57,1.01,3.55,5.02,17.64,16.17,25.7,2.1,1.52,6.25,4.11,25.83,6.52,17.94,2.21,30.59,3.76,47.61,1.04,11.52-1.84,20.28-3.24,29.48-9.65,9.82-6.85,14.76-15.65,17.61-21.13,14.48-27.89,21.78-60.41,24.91-74.74,5.3-24.19,7.98-49.05,14.74-98.48,1.9-13.92,2.77-20.72,4.96-31.5,3.76-18.52,6.49-24.41,7.96-38.09,1.23-11.47.65-19.76-.13-30.78-2.02-28.62-8.31-50.76-10.57-58.24-6.23-20.72-9.68-22.87-13.7-41.48-3.18-14.75-3.73-26.05-4.04-31.83,0,0-1.31-24.4-8.09-91.57-2.04-20.22-8.17-75.41-41.48-131.48-24.48-41.22-53.18-65.29-60.78-71.48-9.26-7.53-49.45-39.15-112.17-52.96-23.2-5.11-97.61-18.38-178.17,18.78-44.43,20.49-74.58,48.88-92.35,69.13-31.55,35.96-45.54,70.77-53.48,91.04-.9,2.29-22.41,58.17-24,109.57-.11,3.42-1.19,41.1-2.35,62.35-.06,1.05-1.04,19.04-1.04,19.04,0,0-11.76,19.29-17.74,30-5.5,9.86-15.8,28.57-22.17,52.17-5.49,20.32-9.25,34.27-5.74,52.17,6.62,33.73,33.54,53.38,36.26,55.3,0,0,4.15,2.94,32.09,18.26,0,0,1.53,28.64,2.35,39.91,1.75,24.11,5.95,42.42,14.35,79.04,7.83,34.17,12.39,46.85,21.65,59.74,7.67,10.68,14.4,15.72,19.83,18.78,3.96,2.23,12.94,6.63,36.52,7.04,30.38.53,49.1.85,58.88-11.49,11.58-14.62,12.6-30.25,12.6-30.25.24-3.61.22-10.66,4.37-12.98Z"/>
  <g>
    <path class="cls-7" d="M662.73,159.26c.59-7.88,9.65-6.93,21.06-22,2.87-3.78,13.73-18.13,15.79-37.92,1.1-10.64-1.02-16.28,2.48-18.5,6.34-4.04,21.46,9.33,24.35,11.88,20.94,18.52,27.75,42.34,29.46,48.88,1.09,4.19,5.92,23.86.72,48.81-4.44,21.29-16.56,48.22-26.02,47.07-3.36-.41-4.55-4.14-9.25-12.06-7.12-12-13.87-19.28-27.37-33.84-20.44-22.04-31.87-23.47-31.2-32.33Z"/>
    <path class="cls-9" d="M682.51,147.78c9.14,6.04,19.88,14.35,30.59,25.57,16.64,17.44,26.73,35.15,32.77,48.16"/>
    <path class="cls-9" d="M695.02,127.27c9.26,3.96,20.5,9.73,32.29,18.17,13.9,9.94,24.18,20.43,31.4,29"/>
    <path class="cls-9" d="M701.64,103.94c6.36.97,15.29,3.1,24.96,8.1,14.03,7.26,22.75,17.02,27.3,23"/>
    <path class="cls-8" d="M662.73,159.26c.59-7.88,9.65-6.93,21.06-22,2.87-3.78,13.73-18.13,15.79-37.92,1.1-10.64-1.02-16.28,2.48-18.5,6.34-4.04,21.46,9.33,24.35,11.88,20.94,18.52,27.75,42.34,29.46,48.88,1.09,4.19,5.92,23.86.72,48.81-4.44,21.29-16.56,48.22-26.02,47.07-3.36-.41-4.55-4.14-9.25-12.06-7.12-12-13.87-19.28-27.37-33.84-20.44-22.04-31.87-23.47-31.2-32.33Z"/>
  </g>
  <g>
    <path class="cls-7" d="M332.85,154.52c-.14-7.9-9.23-7.47-19.76-23.16-2.65-3.94-12.67-18.89-13.59-38.76-.49-10.68,1.95-16.19-1.41-18.62-6.1-4.4-21.96,8.09-24.99,10.47-21.97,17.29-30.13,40.68-32.2,47.12-1.33,4.12-7.28,23.48-3.51,48.69,3.21,21.51,13.77,49.08,23.28,48.48,3.38-.21,4.78-3.87,9.92-11.51,7.8-11.58,14.95-18.46,29.26-32.22,21.66-20.84,33.16-21.61,33-30.49Z"/>
    <path class="cls-9" d="M313.76,141.93c-9.47,5.51-20.67,13.19-32,23.78-17.61,16.46-28.7,33.56-35.47,46.21"/>
    <path class="cls-9" d="M302.44,120.74c-9.47,3.43-21.02,8.55-33.28,16.29-14.45,9.13-25.31,19.02-33,27.15"/>
    <path class="cls-9" d="M297.17,97.07c-6.4.61-15.44,2.22-25.38,6.66-14.42,6.44-23.68,15.69-28.57,21.4"/>
    <path class="cls-8" d="M332.85,154.52c-.14-7.9-9.23-7.47-19.76-23.16-2.65-3.94-12.67-18.89-13.59-38.76-.49-10.68,1.95-16.19-1.41-18.62-6.1-4.4-21.96,8.09-24.99,10.47-21.97,17.29-30.13,40.68-32.2,47.12-1.33,4.12-7.28,23.48-3.51,48.69,3.21,21.51,13.77,49.08,23.28,48.48,3.38-.21,4.78-3.87,9.92-11.51,7.8-11.58,14.95-18.46,29.26-32.22,21.66-20.84,33.16-21.61,33-30.49Z"/>
  </g>
</svg>