<?xml version="1.0" encoding="UTF-8"?>
<svg id="_圖層_5" data-name="圖層 5" xmlns="http://www.w3.org/2000/svg" viewBox="0 0 1000 1000">
  <defs>
    <style>
      .cls-1 {
        fill: #89b5da;
      }

      .cls-2 {
        fill: #6183b1;
      }

      .cls-2, .cls-3, .cls-4, .cls-5, .cls-6 {
        stroke: #231815;
        stroke-width: 12px;
      }

      .cls-2, .cls-5, .cls-6 {
        stroke-miterlimit: 10;
      }

      .cls-7 {
        fill: #231815;
      }

      .cls-3 {
        fill: none;
      }

      .cls-3, .cls-4 {
        stroke-linecap: round;
        stroke-linejoin: round;
      }

      .cls-4, .cls-6 {
        fill: #563b5b;
      }

      .cls-5 {
        fill: #f5ea53;
      }
    </style>
  </defs>
  <path class="cls-5" d="M696.97,117.7c.35-4.47,13.33-2.56,25.43-11.44,17.74-13.01,17.68-37.49,23.28-36.98,3.98.36,2.14,12.59,12.33,26.8,2.3,3.21,7.85,10.79,17.61,16.04,9.82,5.29,16.91,4.46,17.22,7.04.51,4.34-19.82,4.31-32.87,18.78-11.35,12.59-9.88,28.06-14.87,28.17-4.95.11-4.32-14.94-16.04-27.98-13.55-15.07-32.5-15.08-32.09-20.45Z"/>
  <path class="cls-5" d="M128.79,379.72c-.09-4.66,13.12-4.24,25.43-14.41,17.52-14.47,17.72-37.49,23.28-36.98,3.98.36,2.14,12.59,12.33,26.8,2.3,3.21,7.85,10.79,17.61,16.04,9.82,5.29,16.91,4.46,17.22,7.04.51,4.34-19.82,4.31-32.87,18.78-11.35,12.59-9.88,28.06-14.87,28.17-4.98.11-4.01-15.67-16.04-27.98-13.39-13.7-31.98-11.95-32.09-17.48Z"/>
  <path class="cls-6" d="M719.4,314.11c10.12,11.37,15.79,28.1,27.13,61.57,8.09,23.88,15.55,45.9,17.22,75.13,0,0,.87,15.24-8.35,87.13,0,0,6.89,15.25,7.3,16.17,4.36,9.65,16.09,35.66,23.48,57.65,5.5,16.38,11.76,35.04,13.3,60,1.04,16.92,2.35,43.14-10.96,71.48-3.99,8.49-12.07,25.24-28.43,37.04-14.89,10.75-32.9,14.7-34.32,14.85-.01,0-.06,0-.11.02-2.33.66-.13,14.89.26,17.74,2.67,19.27-4.24,43.75-11.48,69.39-6.32,22.4-10.52,29.03-17.22,32.87-6.33,3.63-12.59,3.46-16.96,3.39-44.57-.66-55.23,7.46-90.78.1-14.3-2.96-22.85-6.4-25.04-13.15-2.11-6.49,2.4-13.76,2.61-14.09,4.63-7.26,14.87-11.48,14.87-11.48,0,0-2.61-40.43-2.61-40.43-58.26,4.36-68.09,4.17-68.09,4.17-34.66-.65-67.03-6.49-69.98-7.79-.03-.01-.1-.05-.2-.04-2.08.15-2.67,18.41-4.17,52.96-.38,8.77-.6,13.21-2.09,15.91-5.38,9.78-18.19,12.29-42.52,14.87-62,6.58-78.85.94-89.74-6-11.02-7.02-11.26-12.4-11.22-13.83.21-7.5,11.03-9.76,14.35-20.09,1.95-6.08-.03-10.8-2.61-19.3,0,0-9.64-33.24-14.22-72.13-.09-.79-.47-2.81-1.24-6.85-.64-3.38-.81-4.05-1.37-4.63-2.34-2.41-8.42.03-10.17.78,0,0-7.21,2.02-24.13.65-17.57-1.41-30.75-18.46-34.04-23.09-4.98-7-10.85-18.72-10.57-49.17.08-8.5,1.22-67.25,31.04-118.7,3.81-6.57,20.35-34.17,20.35-34.17,0,0-5.23-23.64-5.48-24.78-3.76-17.07-4.64-47.19,0-79.04,5.07-34.87,10.97-75.41,32.61-101.74,35.74-43.5,87.23-15.14,235.04-31.04,109.49-11.78,167.97-36.67,198.52-2.35Z"/>
  <path class="cls-4" d="M718.62,629.63c2.33,20.55,4.75,37.01,6.52,48.26,2.62,16.63,5.74,33.9-1.3,38.09-2.53,1.51-4.02-.08-9.39,1.83-6.94,2.46-11.09,7.45-13.57,10.43-2.1,2.52-5.16,6.84-7.3,13.04"/>
  <path class="cls-3" d="M660.97,667.46c-4.56,24.36-3.13,44.16-1.25,56.87,3.47,23.45,7.28,49.16,27.85,62.87,13.76,9.17,29.25,9.13,37.83,8.35"/>
  <path class="cls-3" d="M282.57,624.07c-2.52,22.28-4.04,48.01-3.26,76.52.84,30.42,4.14,57.6,8.28,80.8"/>
  <path class="cls-3" d="M408.97,820.33c20.05,11.13,37.61,16.29,49.68,18.9,9.86,2.13,18.11,2.99,22.65,3.45,11.38,1.16,21.74,1.37,42.36.53,13.41-.55,30.78-1.52,51.23-3.38"/>
  <path class="cls-3" d="M445.23,525.93c11.32-4.8,30.6-11.31,55.3-11.74,24.49-.43,43.84,5.3,55.3,9.65"/>
  <line class="cls-3" x1="526.1" y1="448.72" x2="618.97" y2="447.15"/>
  <line class="cls-3" x1="384.45" y1="447.93" x2="473.14" y2="447.93"/>
  <ellipse class="cls-7" cx="428.53" cy="457.2" rx="22.17" ry="15"/>
  <ellipse class="cls-7" cx="574.62" cy="457.2" rx="22.17" ry="15"/>
  <path class="cls-1" d="M700.05,486.41s-3.32,2.03-8.1,12.39c-8.13,17.61-8.19,21.29-8.09,23.35.15,3.04.47,9.62,5.61,14.22,4.75,4.26,10.57,4.08,11.35,4.04,8.64-.4,13.15-7.86,13.43-8.35,3.02-5.19,2.04-10.43.91-16.43-.7-3.76-3.44-9.3-8.87-20.22-3.58-7.19-6.25-9-6.25-9Z"/>
  <path class="cls-1" d="M675.78,382.33s-3.32,2.03-8.1,12.39c-8.13,17.61-8.19,21.29-8.09,23.35.15,3.04.47,9.62,5.61,14.22,4.75,4.26,10.57,4.08,11.35,4.04,8.64-.4,13.15-7.86,13.43-8.35,3.02-5.19,2.04-10.43.91-16.43-.7-3.76-3.44-9.3-8.87-20.22-3.58-7.19-6.25-9-6.25-9Z"/>
  <path class="cls-1" d="M584.13,382.33s-2.1,1.28-5.12,7.83c-5.14,11.13-5.18,13.46-5.11,14.76.09,1.92.3,6.08,3.55,8.99,3,2.69,6.69,2.58,7.17,2.56,5.46-.25,8.31-4.97,8.49-5.28,1.91-3.28,1.29-6.59.58-10.39-.44-2.38-2.17-5.88-5.61-12.78-2.26-4.55-3.95-5.69-3.95-5.69Z"/>
  <path class="cls-1" d="M338,393.97s-2.1,1.28-5.12,7.83c-5.14,11.13-5.18,13.46-5.11,14.76.09,1.92.3,6.08,3.55,8.99,3,2.69,6.69,2.58,7.17,2.56,5.46-.25,8.31-4.97,8.49-5.28,1.91-3.28,1.29-6.59.58-10.39-.44-2.38-2.17-5.88-5.61-12.78-2.26-4.55-3.95-5.69-3.95-5.69Z"/>
  <path class="cls-1" d="M293,446.08s-2.1,1.28-5.12,7.83c-5.14,11.13-5.18,13.46-5.11,14.76.09,1.92.3,6.08,3.55,8.99,3,2.69,6.69,2.58,7.17,2.56,5.46-.25,8.31-4.97,8.49-5.28,1.91-3.28,1.29-6.59.58-10.39-.44-2.38-2.17-5.88-5.61-12.78-2.26-4.55-3.95-5.69-3.95-5.69Z"/>
  <path class="cls-1" d="M367.36,500.36s-3.14,1.92-7.67,11.73c-7.7,16.68-7.75,20.16-7.66,22.11.14,2.87.45,9.11,5.31,13.46,4.5,4.03,10.01,3.86,10.75,3.83,8.18-.38,12.45-7.44,12.72-7.91,2.86-4.91,1.93-9.88.86-15.56-.67-3.56-3.25-8.81-8.4-19.15-3.39-6.81-5.92-8.52-5.92-8.52Z"/>
  <path class="cls-2" d="M423.45,139.91s31.83-60.52,98.61-57.91c66.78,2.61,107.48,42.26,113.22,80.35,15.13,0,34.43,0,57.91,11.48,23.48,11.48,39.65,41.22,40.7,49.57,7.07.01,19.27.93,32.67,6.98,8.66,3.91,26.41,11.92,34.04,31.06,6.24,15.66,2.33,30.13.59,36.05-16.43,56.09-73.04,45.65-98.35,37.57-4.7,4.17-35.74,23.48-66.52,23.48s-54-13.04-62.87-21.13c-24.52,15.65-51.39,28.43-75.39,29.22-24,.78-68.35-17.22-75.91-25.57-9.91,5.74-37.83,17.74-57.65,17.22-19.83-.52-37.83-18-40.7-20.35-12.26,7.04-100.17,20.61-100.17-49.3s63.13-61.57,65.22-61.3c.78-11.48,11.48-55.83,38.09-72.52s64.96-28.7,96.52-14.87Z"/>
  <path class="cls-3" d="M822.38,727.26c.27,7.58-.24,20.9-6.26,36-5.94,14.89-14.59,24.81-19.96,30.13"/>
</svg>