<?xml version="1.0" encoding="UTF-8"?>
<svg id="_圖層_6" data-name="圖層 6" xmlns="http://www.w3.org/2000/svg" xmlns:xlink="http://www.w3.org/1999/xlink" viewBox="0 0 1000 1000">
  <defs>
    <style>
      .cls-1 {
        fill: #e7a2c6;
      }

      .cls-2 {
        fill: url(#_未命名漸層_32);
      }

      .cls-3 {
        fill: #798674;
      }

      .cls-3, .cls-4, .cls-5, .cls-6, .cls-7 {
        stroke: #231815;
        stroke-width: 12px;
      }

      .cls-3, .cls-5, .cls-6 {
        stroke-linecap: round;
        stroke-linejoin: round;
      }

      .cls-4 {
        fill: #231815;
      }

      .cls-4, .cls-7 {
        stroke-miterlimit: 10;
      }

      .cls-8 {
        fill: #ef8371;
      }

      .cls-5, .cls-7 {
        fill: none;
      }

      .cls-6 {
        fill: #d6e9cb;
      }

      .cls-9 {
        fill: url(#_未命名漸層_49);
      }
    </style>
    <linearGradient id="_未命名漸層_49" data-name="未命名漸層 49" x1="162.89" y1="569.75" x2="448.93" y2="569.75" gradientUnits="userSpaceOnUse">
      <stop offset="0" stop-color="#d0121b"/>
      <stop offset="1" stop-color="#d96725"/>
    </linearGradient>
    <linearGradient id="_未命名漸層_32" data-name="未命名漸層 32" x1="248.54" y1="556.19" x2="386.54" y2="556.19" gradientUnits="userSpaceOnUse">
      <stop offset="0" stop-color="#eeaf28"/>
      <stop offset="1" stop-color="#e78528" stop-opacity=".3"/>
    </linearGradient>
  </defs>
  <path class="cls-3" d="M382.65,194.57c.59-2.04,5.07-14.41,10.96-28.17,7.45-17.44,9.73-19.76,12.52-21.13,10.48-5.14,26.37,4.12,35.22,12.52,13.23,12.57,14.91,27.26,19.57,26.61,3.96-.55,3.11-11.23,8.61-25.04.6-1.51,14.36-35.09,33.65-34.43,10.59.36,18.4,12.01,25.04,21.91,13.78,20.53,12.23,36.39,20.74,38.09,5.22,1.04,7.43-4.61,20.09-13.3,8.4-5.77,28.18-19.36,41.22-13.57,7.32,3.25,9.96,11.47,14.22,24.78,8.42,26.3,2.17,38.87,10.04,43.83,7.87,4.95,16.07-6.37,40.83-7.83,10.67-.63,22.07-1.3,28.83,5.74,7.24,7.54,5.62,20.25,3.65,35.74-2.93,23.01-9.73,29.13-5.22,35.82,4.25,6.3,11.85,3.23,36,11.4,11.09,3.75,16.68,5.71,19.04,9.91,5.33,9.47-2.14,24.24-8.35,36.52-7.51,14.86-13.43,19.38-11.22,24.78,2.21,5.41,9.57,2.92,21.65,9.91,4.6,2.66,15.6,9.03,18.89,20.41,1.24,4.28.91,9.69.26,20.51-.43,7.18-.65,10.77-1.31,12.16-6.72,14.13-42.6,7.88-43.53,13.43-.53,3.16,10.97,5.57,25.7,16.7,9.88,7.47,18.41,13.91,18,20.87-.88,15.02-42.65,19.7-42.13,31.3.27,5.9,11.14,6.33,24.43,21.07,6.46,7.17,11.78,13.13,11.18,20.45-1.01,12.27-18.22,22.48-32.58,23.45-7.81.53-14.52-1.7-14.76-.79-.37,1.38,15.9,3.09,26.61,14.87.87.96,12.7,14.33,8.61,27.39-.94,2.99-3.26,7.73-18.78,17.22-14.94,9.13-28.23,14.18-30.52,14.87-50.93,15.26-339.91-423.93-327.13-468Z"/>
  <path class="cls-6" d="M295,686.83c-15.95,12.46-20.19,41.78-21.13,48.52-1.76,12.63-.04,18.76-3.16,44.41-2.5,20.48-4.59,24.76-6.32,27.63-7.39,12.25-18.08,15.14-18.2,24.54-.08,6.45,4.86,11.31,6.55,12.98,7.85,7.72,18.64,7.63,42.26,7.04,31.51-.79,47.41-1.3,54.78-7.04,10.85-8.45,9.62-18.04,17.22-37.57,17.55-45.11,45.27-48.34,44.61-68.87-1.15-35.68-86.46-75.21-116.61-51.65Z"/>
  <path class="cls-6" d="M217.65,393.09c-12.31-10.25-28.86-9.78-33.39-9.65-3.52.1-28.16,1.23-44.09,22.43-1.66,2.21-17.16,23.55-9.39,48,7.09,22.3,28.41,31.06,40.43,36,11.86,4.87,24,9.86,35.22,5.48,28.51-11.14,39.78-78.48,11.22-102.26Z"/>
  <path class="cls-6" d="M193.6,418.65c-1.54.14-14.76,1.53-19.57,11.48-4.23,8.74.39,19.25,4.96,24.78,14.51,17.57,52.55,13.88,57.39,1.57,4.79-12.17-20.07-39.88-42.78-37.83Z"/>
  <path class="cls-6" d="M700.13,559.65c12.43-.92,30.41-2.93,51.65-7.83,30.24-6.98,52.21-12.04,72.78-28.96,10.49-8.63,28.63-22.81,33.65-46.96,2.54-12.23.8-22.25,0-26.61-1.81-9.86-5.77-31.41-24.26-41.48-10.86-5.92-27.32-8.19-39.91,0-1.88,1.22-12.86,8.37-14.2,19.57-.78,6.53,2.32,9.45,0,14.09-2.66,5.32-9.42,6.86-17.1,8.61-9.66,2.2-18.29,4.16-23.48,0-7.39-5.93-4.07-21.28-3.13-26.61,7.19-40.85-20.96-89.2-36-115.04-25.6-43.98-59.64-69.18-74.35-79.04-48.22-32.34-94.7-38.04-125.78-41.48-31.73-3.51-94.43-9.63-161.43,23.48-39.32,19.43-63.64,44.22-72,53.22-44.34,47.73-56.74,100.16-63.39,129.91-2.82,12.62-13.05,61.97-3.13,126,5.99,38.7,16.24,108.07,72,167.48,13.86,14.77,48.65,48.24,101.74,66.52,58.66,20.2,147.59,24.59,176.09,14.09,2.13-.79,8.65-3.39,14.87-.78,10.93,4.59,19.25,21.44,16.43,36-2.71,14.02-13.84,16.51-15.16,32.28-.38,4.48-.93,11.16,3.13,16.03,3.94,4.72,15.04,4.32,37.04,4.84,10.89.26,11.77-.17,28.7.01,20.34.22,20.5.85,26.61.13,11.25-1.33,22.95-2.71,31.83-11.62,8.63-8.67,10.22-20.08,10.99-25.63.73-5.26-.36-11.69-1.17-24.65-.65-10.35-2.24-19.01-2.72-21.53-3.21-16.86-6.79-20.99-3.93-25.04,3.14-4.44,9.18-1.86,20.35-4.7,8.28-2.1,14.11-6.25,25.43-14.48,8.98-6.52,20.1-14.59,29.09-25.04,23.71-27.56,29.63-68.2,21.78-72.39-4.33-2.31-9.04,8.5-26.09,12.39-13.46,3.07-25.11-.35-31.34-2.18-11.53-3.38-18.41-5.4-21.22-11.38-2.16-4.59-.04-7.49,8.61-34.43,3.57-11.13,4.9-15.89,6-20.35,2.11-8.53,3.35-15.68,4.08-20.51"/>
  <path class="cls-6" d="M799.75,458.66c-.67-.17-15.97-4.21-20.15-18.68-3.23-11.16,2.47-20.54,4.7-23.67,5.34-7.52,12.72-10.18,16.24-11.45,9.7-3.49,18.23-2.12,21.96-1.29"/>
  <g>
    <path class="cls-4" d="M433.96,532.58c-4.16.32-11.45,1.11-30.3,6.43-33.72,9.52-35.6,14.12-49.88,14.41-5.32.11-22.4.46-34.89-9.39-15.05-11.87-14.38-31.41-14-42.35,1.45-42.39,35.5-71.12,42.01-76.62,10.6-8.95,30.52-22.93,59.95-29.91,31.65-7.5,57.54-2.92,66.27-1.1,40.22,8.4,63.64,30.85,71.32,38.43,5.66,5.58,16.78,17.55,25.23,35.22,6.27,13.12,14.18,29.65,9.83,49.92-1.72,8.01-5.25,24.45-20.07,32.74-20.72,11.6-51.2.37-61.67-3.49-13.34-4.92-16.57-9.02-31.45-12.22-4.63-1-16.72-3.27-32.35-2.06Z"/>
    <path class="cls-8" d="M385.47,545.37c-12.04,3.88-24.2,7.64-36.69,3.49-3.25-1.08-5.16-1.74-6.55-3.49-7.95-10.04,14.68-39.1,39.97-55.85,7.11-4.71,24.22-15.72,49.14-18.37,3.8-.4,16.04-1.49,31.45,1.16,5.35.92,14.7,2.6,25.55,7.57,12.3,5.63,20.02,12.51,26.54,18.34,5.92,5.29,10.44,10.27,13.76,14.27,9.9,11.94,18.51,22.65,15.72,34.63-.69,2.95-1.03,4.42-2.29,5.53-8.15,7.16-31.45-10.27-74.04-18.92-12.89-2.62-19.33-3.93-28.5-3.49-8.94.42-13.63,2.1-54.05,15.14Z"/>
    <path class="cls-7" d="M433.96,532.58c-4.16.32-11.45,1.11-30.3,6.43-33.72,9.52-35.6,14.12-49.88,14.41-5.32.11-22.4.46-34.89-9.39-15.05-11.87-14.38-31.41-14-42.35,1.45-42.39,35.5-71.12,42.01-76.62,10.6-8.95,30.52-22.93,59.95-29.91,31.65-7.5,57.54-2.92,66.27-1.1,40.22,8.4,63.64,30.85,71.32,38.43,5.66,5.58,16.78,17.55,25.23,35.22,6.27,13.12,14.18,29.65,9.83,49.92-1.72,8.01-5.25,24.45-20.07,32.74-20.72,11.6-51.2.37-61.67-3.49-13.34-4.92-16.57-9.02-31.45-12.22-4.63-1-16.72-3.27-32.35-2.06Z"/>
  </g>
  <path class="cls-9" d="M448.93,469.39c-10.37-1.23-26.32-1.99-44.8,2.18-17.81,4.02-25.5,9.8-38.54,13.86-14.24,4.43-36.23,7.22-67.84-2.91-4.24-1.76-10.28-3.9-17.75-5.37-1.32-.26-12.48-1.94-21.04-1.7-21.13.59-37.76,16.63-38.15,24.85,9.2,2.93,22.7,9.2,21.52,26.41-1.17,16.83-10.37,20.74-26.61,22.5s-35.61,4.3-42.85,38.93c10.57-1.17,40.5-9,41.09,18,.59,27-34.63,33.26-51.07,24.85,2.74,6.65,15.85,35.02,54.39,39.13s62.02-5.48,78.46-23.87c16.43-18.39,22.7-26.22,34.04-21.13,11.35,5.09,10.76,17.61,4.89,26.02,17.22-7.24,27.59-10.37,39.33-35.61,11.74-25.24,18.59-61.63,21.72-70.24,3.13-8.61,15.65-52.24,53.22-75.91Z"/>
  <path class="cls-2" d="M386.54,507.77c-5-.59-12.7-.96-21.62,1.05-8.59,1.94-12.3,4.73-18.6,6.69-6.87,2.14-17.48,3.48-32.73-1.4-2.05-.85-4.96-1.88-8.56-2.59-.63-.12-6.02-.94-10.15-.82-10.19.28-18.22,8.02-18.41,11.99,4.44,1.42,10.95,4.44,10.38,12.74-.57,8.12-5,10.01-12.84,10.86s-17.18,2.08-20.67,18.78c5.1-.57,19.54-4.34,19.82,8.68.28,13.03-16.71,16.05-24.64,11.99,1.32,3.21,7.65,16.9,26.24,18.88,18.6,1.98,29.92-2.64,37.85-11.52,7.93-8.87,10.95-12.65,16.42-10.19,5.47,2.45,5.19,8.5,2.36,12.55,8.31-3.49,13.31-5,18.97-17.18,5.66-12.18,8.97-29.73,10.48-33.89,1.51-4.15,7.55-25.2,25.68-36.63Z"/>
  <line class="cls-5" x1="480.32" y1="329.5" x2="549.97" y2="280.2"/>
  <line class="cls-5" x1="449.01" y1="302.24" x2="449.01" y2="329.5"/>
  <line class="cls-5" x1="399.32" y1="299.89" x2="399.32" y2="326.5"/>
  <line class="cls-5" x1="317.54" y1="275.24" x2="375.84" y2="326.5"/>
  <polyline class="cls-5" points="305.91 337.46 367.23 361.72 303.45 374.24"/>
  <polyline class="cls-5" points="560.53 337.46 493.62 362.11 569.92 376.2"/>
  <ellipse class="cls-1" cx="617.01" cy="415.2" rx="34.96" ry="30.52"/>
  <ellipse class="cls-1" cx="277.88" cy="410.5" rx="34.96" ry="30.52"/>
</svg>