<?xml version="1.0" encoding="UTF-8"?>
<svg id="_圖層_3" data-name="圖層 3" xmlns="http://www.w3.org/2000/svg" viewBox="0 0 1000 1000">
  <defs>
    <style>
      .cls-1 {
        stroke-width: 11px;
      }

      .cls-1, .cls-2, .cls-3 {
        fill: none;
      }

      .cls-1, .cls-2, .cls-3, .cls-4 {
        stroke-linecap: round;
        stroke-linejoin: round;
      }

      .cls-1, .cls-2, .cls-4 {
        stroke: #231815;
      }

      .cls-5, .cls-4 {
        fill: #fff;
      }

      .cls-6 {
        fill: #ad87b3;
      }

      .cls-7 {
        fill: #fffef0;
      }

      .cls-8 {
        fill: #231815;
      }

      .cls-2, .cls-4 {
        stroke-width: 12px;
      }

      .cls-3 {
        stroke: #8a69ab;
        stroke-width: 6px;
      }

      .cls-9 {
        fill: #e5cfd5;
      }

      .cls-10 {
        opacity: .6;
      }

      .cls-11 {
        fill: #7e3a50;
      }
    </style>
  </defs>
  <path class="cls-6" d="M266.17,743.36c-1.09-8.09,2.92-27.96-6.9-33.76-7.25-4.27-15.04,3.24-31.24,0-9.52-1.9-16.08-6.34-19.84-8.94-14.61-10.09-20.61-24.04-23.84-31.81-3.77-9.08-12.25-29.53-4.46-52.46,1.5-4.42,8.83-26,28.34-32.81,3.32-1.16,12.83-4.48,21.95,0,9.23,4.53,14.68,15.4,14.66,25.09-.04,12.16-8.69,14.33-16.22,36.59-5.77,17.06-2.49,21.09-1.57,22.06,3.43,3.59,10,2.45,14.87,1.54,24.04-4.5,39.14-8.75,46.74-10.39,28.97-6.28,40.62,5.32,48.35-3.21,5.75-6.35.31-13.89-6.99-48.38-10.84-51.25-16.26-76.87-14.84-89.49.22-1.95.72-5.6-1.46-8.09-8.21-9.35-42.17,11.87-47.44,4.63-1.19-1.63-.16-3.79,1.48-8.68,4.41-13.12,1.73-11.39,6.91-30.87,5.16-19.42,13.27-41.63,16.54-49.28,14.71-34.39,65.94-88.06,139.76-109.71,12.36-3.63,57.88-15.88,115.55-4.83,21.12,4.05,78.43,15.82,124.71,63.28,11.17,11.46,67.55,72.02,68.82,143.54.15,8.26-.1,35.86,8.72,38.15,6.72,1.75,11.32-13.1,27.69-17.98,12.16-3.63,27.52-.77,36.83,8.27,10.59,10.29,10.08,25.12,9.65,37.75-.73,21.83-8.91,37.48-19.72,57.62-13.29,24.76-19.93,37.15-32.5,44.12-14.39,7.99-28.68,6.64-32.91,17.73-1.59,4.17-.66,6.96,0,18.4.96,16.61.05,29.15,0,29.74-3.11,38.22-462.6,59.47-471.65-7.83Z"/>
  <path class="cls-9" d="M174.67,918.54c-3.29-1.88-6.99-1.86-9.39,0-1.74,1.35-2.86,3.72-2.61,5.74.74,5.85,12.96,8.81,17.22,9.91,21.76,5.62,7.79,7.05,60.52,25.04,30.98,10.57,46.47,15.86,56.35,15.13,3.9-.29,20.2-1.83,39.65-4.7,8.67-1.28,8.86-1.48,11.48-1.57,16.38-.56,24.83,6.68,39.65,12,14.61,5.24,26.68,5.48,40.17,5.74,6.6.13,18.66-1.48,42.78-4.7,27.63-3.68,41.56-5.59,47.48-8.87,1.68-.93,6.02-3.49,12-3.65,7.42-.2,13.03,3.41,15.13,4.7,0,0,13.77,8.45,40.7,13.57,4.81.91,10.91,1.3,46.43-10.96,30.21-10.42,53.9-20.39,79.83-31.3,14.92-6.28,28.24-12.15,30.26-13.04,4.98-2.2,8.14-3.62,9.39-4.17,21.42-9.53,49.25-17.82,54.26-19.3,41.36-12.23,66.06-16.14,74.09-30.26.9-1.58,2.89-5.19,1.57-8.35-2.96-7.07-20.08-5.97-25.04-5.74-55.85,2.61-533.77-12.49-585.91-15.13-35.27-1.79-71.36,4.21-105.91-3.13,0,0-13.84-2.94-32.35,0-.85.13-4.51.75-8.76,2.87-3.01,1.5-8.64,4.31-8.85,7.56-.28,4.12,8.22,7.82,18.66,12.01,9.59,3.85,22.47,8.78,38.09,14.09"/>
  <path class="cls-2" d="M718.52,609.27c1.56-8.49,7.39-33.92,30.26-53.74,9.2-7.97,20.25-19.07,37.04-19.3,2.45-.03,20.5-.02,30.78,13.17,8.56,10.99,6.62,24.56,4.7,37.96-2.93,20.46-10.78,34.74-21.65,53.87-10.23,17.99-16.08,28.29-27.98,39.33-15.26,14.15-31.34,21.04-41.47,24.46"/>
  <path class="cls-1" d="M737.82,751.19v-48.14"/>
  <path class="cls-2" d="M741.59,562.51c1.24-22.5.47-62.15-17.33-106.63-7.27-18.15-29.5-71.58-87.13-110.09-52-34.74-103.12-37.61-126.26-38.61-20.54-.89-61.89-2.2-109.04,18.78-10.57,4.7-60.55,27.94-97.57,83.48-28.92,43.39-35.01,84.12-40.7,122.09-6.81,45.49-4.54,87.37,0,171.13.93,17.08,1.9,31.17,2.61,40.7"/>
  <path class="cls-2" d="M221.82,657.8c5.17-4.29,14.52-13.31,19.3-27.65,4.75-14.24,7.17-40.2-6.78-48.52-13.3-7.93-34.73,4.19-45.39,17.22-15.58,19.04-11.07,43.56-9.39,52.7,1.32,7.16,7.42,40.34,37.57,54.26,20.68,9.55,40.57,4.45,46.75,2.59"/>
  <path class="cls-2" d="M608.24,185.23c-26.3-8.17-54.04-2.01-71.61,16.04-24.27,24.93-16.72,59.78-15.26,66.52,10.78,49.8,65.33,67.18,69.65,68.48,35.92,10.81,83.15,3.37,104.87-26.61,5-6.91,7.77-13.79,9.39-19.17"/>
  <path class="cls-2" d="M347.63,284.62c74.77,30.63,113.44,22.4,135,8.61,13.93-8.91,30.99-26.7,64.96-37.96,22.49-7.45,34.7-6.18,43.83-1.17,9.1,4.99,19.57,16.13,17.61,27.39-1.91,10.94-15.01,18.97-26.61,20.74-24.19,3.69-32.91-21.22-79.04-38.74-27.58-10.47-40.63-7.71-47.74-5.09-2.15.79-21.81,8.34-24.65,23.87-3.54,19.33,21.27,38.5,39.91,45.39,27.42,10.13,52.89-2.08,58.7-5.09,7.66-3.97,13.28-8.57,16.94-12.02"/>
  <path class="cls-2" d="M546.02,373.84c1.93,4.35,8.06,16.65,22.3,25.04,13.92,8.2,27.31,7.8,32.09,7.43"/>
  <path class="cls-2" d="M437.63,371.1c-1.57,4.19-6.73,16.36-19.96,25.04-14.23,9.34-28.58,8.6-32.87,8.22"/>
  <path class="cls-2" d="M430.97,556.19c2.3-5.38,9.88-21.19,27.78-31.12,21.9-12.14,43.68-6.85,51.26-4.49,30.85,9.6,42.64,37.91,44.22,41.87"/>
  <ellipse class="cls-5" cx="414.56" cy="465.6" rx="40.89" ry="44.41"/>
  <ellipse class="cls-8" cx="425.49" cy="467.56" rx="24.85" ry="26.02"/>
  <ellipse class="cls-5" cx="573.21" cy="469.51" rx="40.89" ry="44.41"/>
  <ellipse class="cls-8" cx="562.28" cy="471.47" rx="24.85" ry="26.02"/>
  <path class="cls-4" d="M202.06,574.97c-5.27-10.49-14.86-49.9-14.87-49.9.01,0,126.51-15.77,126.52-15.78,0,0,6.97,38.03,13.11,76.89,5.37,34.01,10.17,69.07,10.17,69.07,0,0-31.75.05-64.17,5.48-18.39,3.08-40.68,13.27-48.13,4.89-.5-.56-3.86-4.34-2.87-7.83.82-2.89,4-3.35,8.61-8.58,1.21-1.38,1.95-2.43,3.03-3.96,1.5-2.14,4.42-6.61,6.86-12.84,2.84-7.26,3.58-13.23,4.01-16.83.46-3.93,1.12-9.94-.2-17.43-.93-5.25-2.23-7.78-2.83-8.86-.89-1.59-2.86-5.28-6.95-7.68-7.35-4.3-16.62-1.69-18.47-1.16-4.13,1.17-7.65,3.12-7.65,3.12-3.91,2.17-6.34,4.53-6.89,4.03-.56-.51,1.98-2.93,2.2-6.77.16-2.8-.99-4.92-1.47-5.87Z"/>
  <polygon class="cls-7" points="266.1 738.6 261.93 711.37 245.24 711.37 140.05 755.57 177.41 784.07 114.19 817.74 189.28 874.25 195.25 878.3 158.48 895.42 279.15 969.89 348.67 937.38 421.19 978.76 529.52 943.6 606.8 987.11 755.82 941.49 724.76 921.44 884.55 842.8 823.63 810.07 841.58 767.82 778.87 757.78 824.53 733.16 768.15 695.14 740.37 705.21 736.19 749.92 736.71 760.59 697.97 723.99 650.63 669.21 550.45 699.99 535.84 705.73 407.69 685.22 380.37 733.38 296.89 711.37 266.1 738.6"/>
  <path class="cls-9" d="M372.5,925.57l44.87,6.26c41.43,23.67,42.26,22.43,42.26,22.43.47-.69-3.46-3.78-18.78-16.7-20.84-17.58-26.02-22.37-30.97-24.23-1-.37-1.89-.64-2.94-.82-6.54-1.12-11.64,2.44-18.2,5.93-3.7,1.97-9.12,4.6-16.24,7.11Z"/>
  <path class="cls-9" d="M452.95,893.02c5.06,1.76,7.36,11.25,5.09,13.3-2.04,1.85-8.61-1.57-8.61-1.57,0,0,3.48.66,3.52,1.57.08,1.81-13.8.64-21.91,6.65-.62.46-2.25,1.73-4.3,1.57-2.64-.21-5.33-2.76-5.09-4.7.27-2.14,4.09-2.98,7.83-4.3,14.97-5.28,18-14.43,23.48-12.52Z"/>
  <path class="cls-9" d="M467.69,912.33c-1.46,1.99.07,6.28,2.74,8.61,3.09,2.69,7.37,2.46,9,2.35,34.03-2.33,51.04-3.5,63.39-5.36,37.5-5.64,35.98-1.48,45.39-5.6,2.55-1.12,9.94-4.61,17.22-1.96,4.09,1.49,5.66,4.03,8.61,6.49,6.91,5.79,15.34,6.16,26.22,6.49,16.03.49,38.67-2.8,39.13-8.68.11-1.43-1.19-1.75-16.83-12.91-4.97-3.55-12.52-9-12.52-9h0c-65.01,10.18-108.25,14.51-108.25,14.51-39.47,3.95-59.2,5.93-64.32,4.66-1.67-.41-7.93-2.13-9.78.39Z"/>
  <path class="cls-9" d="M830.17,821.56c-4.25,12.11-9.97,19.96-14.09,24.65-2.79,3.17-8.92,10.16-12.52,8.61-1.92-.83-2.33-3.74-2.35-3.91-.76-6.01,8.01-7.89,14.48-18.39,4.33-7.02,4.3-12.49,8.22-13.3,2.33-.48,4.63.98,6.26,2.35Z"/>
  <path class="cls-9" d="M730.01,792.71c5.15.79,10.08,5.84,9.39,9.39-.65,3.37-6.13,4.08-16.83,7.04-30.45,8.43-32.52,15.52-44.61,13.3-4.49-.82-10.02-2.86-15.26,0-3.7,2.02-4.98,5.25-8.22,5.09-3.26-.17-6.44-3.67-5.87-5.48.47-1.49,3.43-1.71,5.48-1.96,2.76-.34.32-.29,22.3-7.83,9.35-3.2,7.82-2.54,19.96-6.65,11.32-3.84,16.97-5.76,18.78-6.65,8.14-4.03,10.38-6.95,14.87-6.26Z"/>
  <path class="cls-9" d="M632.78,827.56c-.72,5.24-9.63,8.71-15.26,9.78-16.97,3.24-33.14-9.75-37.57-13.3-11.55-9.28-10.81-14.44-19.57-17.47-12.14-4.2-24.85,1.82-28.96,3.76-13.58,6.44-12.24,13.17-22.3,16.04-10.64,3.04-11.86-4.55-35.61-7.43-5.14-.62-17.55-1.78-27.39-5.48-1.2-.45-6.01-2.32-10.17-6.9-2.05-2.25-3.9-4.28-3.33-5.5,1.09-2.3,9.9.59,29.74,4.35,9.71,1.84,14.57,2.76,20.74,3.61,9.68,1.33,12.78,1.23,19.17,3.26,2.77.88,3.44,1.29,4.96,1.17,2.96-.23,5.51-2.18,14.74-16.17,2.76-4.19,5.61-8.68,9.12-13.71,3.44-4.93,2.67-3.44,4.05-5.6,2.09-3.24,2.55-4.62,3.85-4.93,2.2-.53,4.64,2.47,5.93,4.02,4.22,5.01,9.74,8.82,13.96,13.83,1.47,1.74,8.52,7.77,22.63,19.83,0,0,2.67,2.28,20.28,15,3.01,2.17,5.32,3.8,8.61,3.91,3.21.11,6.83-1.49,13.96-4.7,3.47-1.56,5.57-2.67,7.04-1.7,1.31.86,1.55,2.99,1.37,4.3Z"/>
  <g>
    <path class="cls-2" d="M375.78,736.33c-25.65-6.96-55.39-15.45-81.04-22.41-13.68,15.02-26.02,27.15-35.74,36.26-44.15,41.38-87.62,70.38-91.48,71.42-.02,0-.08.02-.08.05-.49,2,155.74,42,155.74,42h0c15.93-11.58,33.15-25.91,50.35-43.57,7.3-7.49,15.83-17.44,21.89-24.68"/>
    <path class="cls-2" d="M539.17,773.66c-10,13.65-20,27.3-30,40.96,0,0-170.39-27.36-169.83-31.3.01-.08.09-.13.13-.15,5.88-3.43,30.93-38.35,45.27-60.11,6.51-9.88,14.46-22.59,22.96-37.83l126.13,21.07"/>
    <path class="cls-2" d="M653.95,669.5c-2.84-2.98-63.9,17.21-146.09,49.83,5.16,10,13.75,24.98,26.87,41.22,32.19,39.85,76.54,68.58,78.52,70.17,22.01-6.94,40.17-13.15,53.22-17.74,44.44-15.63,89.74-33.65,89.74-33.65-6.01-4.32-13.87-10.25-22.7-17.74-8.83-7.49-25.85-22.06-43.3-43.57-11.31-13.93-27.04-35.99-29.55-39.94-.26-.41-1.45-2.31-3.32-4.67,0,0-1.61-2.04-3.39-3.91Z"/>
    <path class="cls-2" d="M726.52,755.57c23.1,2.83,42.34,4.65,56.36,5.83,0,0,9.96.84,56.36,4.11-3.47,18.71-9.28,32.99-15.12,43.71-1.76,3.23-3.52,6.13-5.22,8.73,0,0-3.12,4.77-26.8,34.83l-94.11-16.04"/>
    <polyline class="cls-2" points="823.63 810.07 887.76 841.22 713.24 927.11 648.55 886.27"/>
    <path class="cls-2" d="M640.28,821.96l39.11,57.42s-74.15,16.83-95.48,20.35-118.17,9.78-118.17,9.78l-35.03-107.92"/>
    <polyline class="cls-2" points="329.37 861.89 395.37 917.46 454.58 885.63"/>
    <polyline class="cls-2" points="600.41 920.59 421.19 978.76 348.67 935.22"/>
    <line class="cls-2" x1="412.81" y1="908.09" x2="474.54" y2="961.45"/>
    <polyline class="cls-2" points="388.58 914.33 282.41 969.89 154.84 897.11 261.18 847.61"/>
    <polyline class="cls-2" points="195.25 878.3 109.45 820.16 180.21 784.07"/>
    <path class="cls-2" d="M201.28,796.16c-1.57-.26-65.74-38.61-65.74-38.61l107.48-46.17"/>
    <polyline class="cls-2" points="529.52 943.6 606.8 987.11 755.82 941.49 724.76 921.44"/>
    <polyline class="cls-2" points="764.1 692.59 826.71 731.98 773.65 760.59"/>
  </g>
  <g class="cls-10">
    <polygon class="cls-3" points="541.97 732.47 615.54 805.45 710.82 769.84 643.32 697.06 541.97 732.47"/>
    <line class="cls-3" x1="657.02" y1="716.23" x2="562.71" y2="750.27"/>
    <line class="cls-3" x1="672.67" y1="732.47" x2="582.47" y2="765.93"/>
    <line class="cls-3" x1="691.84" y1="751.25" x2="598.32" y2="785.88"/>
    <line class="cls-3" x1="570.15" y1="724.84" x2="642.14" y2="795.51"/>
    <line class="cls-3" x1="620.43" y1="706.84" x2="681.87" y2="775.12"/>
    <polyline class="cls-3" points="461.17 816.21 483.87 880.38 638.24 864.54"/>
    <line class="cls-3" x1="599.89" y1="862.19" x2="570.74" y2="820.51"/>
    <line class="cls-3" x1="542.95" y1="869.62" x2="522.41" y2="827.56"/>
    <line class="cls-3" x1="471.54" y1="839.1" x2="579.74" y2="827.56"/>
    <line class="cls-3" x1="479.56" y1="858.47" x2="620.43" y2="845.56"/>
    <polyline class="cls-3" points="408.54 725.95 387.6 762.73 498.74 786.8 517.71 756.37"/>
    <line class="cls-3" x1="402.08" y1="746.3" x2="502.65" y2="768.21"/>
    <line class="cls-3" x1="449.04" y1="771.34" x2="478.39" y2="723.41"/>
    <line class="cls-3" x1="418.91" y1="712.25" x2="496.19" y2="724.84"/>
    <line class="cls-3" x1="411.47" y1="728.3" x2="507.87" y2="745.19"/>
    <polyline class="cls-3" points="360.9 853.76 403.06 884.82 442.19 869.62"/>
    <line class="cls-3" x1="380.56" y1="862.12" x2="431.24" y2="839.23"/>
    <line class="cls-3" x1="382.06" y1="829.19" x2="429.08" y2="869.62"/>
    <line class="cls-3" x1="411.87" y1="827.56" x2="424.58" y2="840.41"/>
    <polyline class="cls-3" points="350.24 756.27 298 741.41 218.37 809.88 320.1 835.12 361.97 798.34"/>
    <line class="cls-3" x1="287.82" y1="756.67" x2="330.87" y2="768.8"/>
    <line class="cls-3" x1="344.76" y1="758.43" x2="277.26" y2="820.25"/>
    <line class="cls-3" x1="265.32" y1="774.67" x2="351.8" y2="796.19"/>
    <line class="cls-3" x1="244.19" y1="792.47" x2="337.71" y2="814.58"/>
  </g>
  <g>
    <path class="cls-11" d="M690.41,146.56c-1.94,1.01-3.7,1.94-6,2.09-4.76.31-8.32-2.91-9.13-3.65-.86-.78-3.25-3-4.17-6.78-1.43-5.8,1.77-10.42,2.35-11.22.45-.63,1.47-1.92,5.74-4.7,3.43-2.23,6.77-4.4,11.22-6,1.72-.62,7.5-2.55,17.22-2.09,8.45.4,22.37,1.07,34.7,11.48,2.62,2.22,11.27,9.73,14.87,22.97.96,3.52,4.25,16.43-2.35,29.98-5.01,10.28-13.01,15.38-16.7,17.74-3.39,2.16-8.92,5.61-16.43,6.26-.6.05-2.71.04-6.91,0-13.23-.11-13.75-.33-15.72.33-5.7,1.91-9.49,6.53-10.5,7.76-2.88,3.52-2.63,5.15-5.48,7.3-.93.71-5.06,3.83-10.17,2.61-5.63-1.35-7.82-6.85-8.09-7.57-1.37-3.62-.57-6.85,0-9.13,1.02-4.11,3.08-6.78,4.7-8.87,3.26-4.22,6.78-6.57,9.2-8.15,1.72-1.12,4.51-2.78,8.22-4.21,2-.77,5.21-1.84,9.29-2.45,3.45-.52,3.48-.1,12.23-.49,5.67-.25,7.62-.52,9.98-1.47.97-.39,3.05-1.32,5.28-3.13,1.47-1.2,3.77-3.39,5.48-6.75.62-1.22,4.29-8.72,1.27-15.65-.91-2.1-2.31-3.84-2.84-4.5-1.7-2.12-3.31-3.38-4.89-4.6-3.12-2.41-4.83-3.73-7.57-4.48-2.65-.72-4.94-.55-6.81-.42-.71.05-2.78.24-5.38.98-.88.25-3.96,1.18-7.63,3.42-2.72,1.67-2.61,2.13-4.96,3.36Z"/>
    <ellipse class="cls-11" cx="660.78" cy="239.48" rx="14.43" ry="13.35"/>
  </g>
  <g>
    <path class="cls-11" d="M457.62,82.05c-1.5,2.29-2.86,4.38-5.29,5.95-5.02,3.25-10.87,1.89-12.21,1.58-1.42-.33-5.38-1.3-8.71-4.87-5.1-5.47-4.43-12.48-4.28-13.7.11-.97.43-3,3.41-8.64,2.39-4.54,4.72-8.95,8.6-13.41,1.5-1.73,6.64-7.37,17.55-12.8,9.48-4.72,25.11-12.5,44.95-8.64,4.22.82,18.27,3.75,30.29,16.04,3.19,3.26,14.69,15.37,15.75,34.22.8,14.29-4.83,24.77-7.42,29.6-2.38,4.44-6.33,11.59-14.15,16.88-.62.42-2.94,1.69-7.56,4.22-14.53,7.96-15.24,8.04-16.99,9.96-5.07,5.57-6.39,12.94-6.74,14.9-1.01,5.61.27,7.23-1.53,11.33-.59,1.34-3.19,7.28-9.53,9.07-6.98,1.97-12.73-2.72-13.46-3.33-3.71-3.13-4.8-7.14-5.58-9.98-1.4-5.12-.77-9.3-.28-12.57.99-6.61,3.4-11.32,5.08-14.53,1.19-2.28,3.23-5.8,6.42-9.62,1.72-2.06,4.58-5.19,8.67-8.35,3.46-2.67,3.75-2.23,13.07-8,6.04-3.74,8.02-5.22,10.01-7.7.82-1.02,2.53-3.31,3.86-6.65.88-2.21,2.05-6.01,1.87-10.73-.07-1.72-.64-12.16-8.17-17.89-2.28-1.74-4.87-2.79-5.85-3.19-3.15-1.28-5.69-1.67-8.16-2.04-4.89-.73-7.56-1.12-11.01-.27-3.34.83-5.74,2.41-7.7,3.71-.74.49-2.89,1.95-5.29,4.36-.81.81-3.61,3.7-6.25,8.4-1.96,3.49-1.56,3.93-3.37,6.7Z"/>
    <ellipse class="cls-11" cx="481.98" cy="201.75" rx="18.07" ry="16.73" transform="translate(-37.19 260.65) rotate(-29.19)"/>
  </g>
  <g>
    <path class="cls-11" d="M255.57,152.87c-.18,2.48-.35,4.73-1.59,7.05-2.56,4.79-7.81,6.28-9.01,6.62-1.27.36-4.85,1.33-9.06-.04-6.46-2.11-9-7.97-9.42-9.01-.33-.82-.97-2.57-1.09-8.36-.09-4.65-.18-9.18.94-14.44.44-2.03,2.04-8.77,8.33-17.88,5.46-7.91,14.47-20.96,31.93-26.61,3.72-1.2,16.16-5.04,31.11-.56,3.97,1.19,18.42,5.76,27.54,20.28,6.92,11.01,7.04,21.8,7.1,26.78.05,4.57.06,11.99-3.83,19.63-.31.61-1.59,2.64-4.15,6.67-8.05,12.71-8.58,13.08-9.13,15.38-1.58,6.65.61,13.09,1.19,14.8,1.66,4.9,3.39,5.63,3.76,9.68.12,1.32.66,7.18-3.59,11.39-4.69,4.63-11.31,3.43-12.16,3.26-4.32-.86-6.95-3.57-8.82-5.48-3.36-3.46-4.7-7.05-5.74-9.86-2.12-5.68-2.27-10.49-2.35-13.78-.05-2.33.02-6.03.87-10.46.46-2.39,1.36-6.14,3.22-10.44,1.58-3.64,2-3.42,6.87-12.1,3.16-5.63,4.08-7.67,4.58-10.52.21-1.17.56-3.74.15-6.98-.27-2.14-1.01-5.67-3.23-9.34-.81-1.34-5.85-9.38-14.35-10.63-2.58-.38-5.09-.08-6.05.04-3.06.37-5.25,1.17-7.38,1.96-4.2,1.57-6.5,2.43-8.87,4.62-2.29,2.12-3.5,4.43-4.49,6.33-.38.72-1.44,2.82-2.29,5.78-.28,1-1.24,4.53-1.28,9.43-.03,3.63.49,3.8.27,6.8Z"/>
    <ellipse class="cls-11" cx="327.5" cy="237.3" rx="16.41" ry="15.19" transform="translate(-46.98 390.04) rotate(-58.11)"/>
  </g>
</svg>