<?xml version="1.0" encoding="UTF-8"?>
<svg id="_圖層_1" data-name="圖層 1" xmlns="http://www.w3.org/2000/svg" viewBox="0 0 1000 1000">
  <defs>
    <style>
      .cls-1 {
        fill: #8cd0de;
      }

      .cls-1, .cls-2, .cls-3 {
        stroke-linecap: round;
        stroke-linejoin: round;
      }

      .cls-1, .cls-2, .cls-3, .cls-4 {
        stroke: #231815;
        stroke-width: 12px;
      }

      .cls-5 {
        fill: #ef8371;
      }

      .cls-2 {
        fill: none;
      }

      .cls-6 {
        fill: #f4a852;
      }

      .cls-7 {
        fill: #f7d16b;
      }

      .cls-3 {
        fill: #231815;
      }

      .cls-8 {
        fill: #f5dc50;
      }

      .cls-4 {
        fill: #5fa961;
        stroke-miterlimit: 10;
      }
    </style>
  </defs>
  <path class="cls-7" d="M230.19,578.27c1.64-1.05-1.38-8.42-1.52-8.78-1.89-4.63-8.27-22.87,8.22-82.17,12.08-43.45,18.12-65.18,33.26-87.65,21.58-32.04,47.41-48.95,66.91-61.43,53.99-34.57,106.87-42.66,130.3-45,30.15-3.01,112.53-6.61,186.65,42.65,35.44,23.56,57.6,51.62,63.1,58.78,14.39,18.73,25.39,33.06,32.38,55.56,3.7,11.93,13.05,47.97,12.13,93.45-.18,8.79-.87,24.42,4.67,26.24,4.54,1.49,8.33-7.91,19.98-14.5,1.37-.78,22.25-12.16,42.65-2.35,18.51,8.9,23.19,28.79,23.48,30.13,4.68,21.44-9.43,39.99-18,51.26-13.19,17.35-38.65,40.16-58.89,50.25-3.19,1.59-12.1,5.78-17.41,15.1-2.72,4.77-3.72,9.53-4.55,13.6-2.19,10.75-1.39,19.28-1.23,21.58.74,10.29-3.58,21.74-12.22,44.65-14.65,38.85-21.97,58.27-35.61,69.65-5.03,4.2-13.06,9.72-16.43,20.35-2.74,8.65-.48,14.62.39,22.7,2.07,19.26-4.94,39.98-16.04,53.61-3.01,3.7-17.08,20.97-41.48,23.09-2.77.24-29.03,2.14-44.26-15.16-16.98-19.3-7.61-48.15-20.7-52.64-2.83-.97-4.01.13-14.87,2.84,0,0-9.6,2.39-32.91,5.87-12.58,1.87-34.38,5.12-58.97-.41-16.39-3.69-27.07-9.72-35.66-3.65-1.84,1.3-3.1,2.81-7.06,10.33-9.65,18.31-10.69,25.43-15.26,32.87-5.87,9.55-16.63,18.1-27.39,20.63-26.55,6.25-60.53-22.29-69.65-50.76-7.23-22.57-8.57-40.51-8.57-40.51-.31-4.12-.69-11.88-4.18-21.41-3.06-8.35-6.99-13.92-8.38-15.95-5.56-8.1-26.43-40.98-34.43-70.83-9.23-34.44,2.22-51.61-14.48-68.87-4.23-4.38-5.83-4.16-16.83-10.96-19.59-12.1-47.3-29.23-62.61-57.91-5.32-9.96-16.44-30.81-8.4-51.62,1.18-3.05,6.78-16.48,21.32-23.48,17.05-8.21,33.67-1.46,35.87-.52,16.4,6.97,24.23,22.98,26.7,21.4Z"/>
  <path class="cls-2" d="M237.8,606.8c-6.32-19.55-13.46-49.96-10.96-86.87,6.4-94.51,70.73-153.71,87.65-168.26,67.93-58.39,144.8-61.46,173.74-62.61,22.44-.89,69.21-2.24,122.87,21.13,25.85,11.26,78.82,39.39,116.61,100.17,42.54,68.41,39.59,135.98,37.65,158.39"/>
  <path class="cls-2" d="M738.67,601.32c6.14-11.25,16.76-26.41,34.43-38.35,9.8-6.62,22.77-15.38,40.7-14.87,5,.14,20.81.59,31.3,11.74,13.12,13.95,9.55,35.75,8.61,41.48,0,0-5.23,31.92-100.17,103.3.27,14.42-.71,26.06-1.57,33.65-6.8,60.07-33.2,101.97-45.39,114.26-1.03,1.04-14.09,14.09-14.09,14.09.12,9.81-.56,24.26-4.7,41.09-5.87,23.88-11.07,45-30.26,56.61-22.52,13.62-48.04,4.34-49.83,3.65-19.37-7.39-28.45-23-32.09-29.48-8.28-14.75-9.17-28.79-9.13-35.74"/>
  <path class="cls-2" d="M424.06,903.83c-1.84,7.66-5.22,18.94-11.74,31.53-7.75,14.96-12.9,24.8-24,31.3-15.15,8.87-34.78,7.16-48.78,0-14.92-7.62-21.41-20.37-28.96-35.74-16.15-32.89-16.43-70.69-16.43-70.7-3.31-3.86-7.99-9.61-13.04-16.96-16.91-24.59-24.05-46.76-30-65.74-4.4-14.04-10.43-33.68-12.52-60.52-1.19-15.23-.75-28.19,0-37.83"/>
  <path class="cls-2" d="M237.85,703.97c-7-3-16.32-7.51-26.66-14.09-8.25-5.25-22.29-14.33-36-30-9.31-10.65-19.6-22.4-24.78-40.96-2.92-10.45-9.02-32.3,3.39-49.83,1.53-2.17,10.14-13.84,25.83-16.7,18.99-3.45,33.18,8.79,36,11.22,13.5,11.65,18.24,27.46,18.75,31.61"/>
  <path class="cls-2" d="M404.5,896.3c16.76,6.12,31.04,9.34,41.09,11.15,43.51,7.84,79.66,2.15,104.48-1.96,13.83-2.29,25.11-4.92,32.67-6.85"/>
  <g>
    <path class="cls-3" d="M445.73,516.42c-16.17-4.31-22.93-8.38-28.57-4.5-8.09,5.57-5.71,21.93-4.7,28.96,4.42,30.49,26.45,49.19,28.96,51.26,5.41,4.46,23.77,19.13,51.07,18.98,25.55-.14,42.85-13.18,49.3-18.2,0,0,20.24-15.73,29.22-42.07,2.7-7.93,3.98-15.7,2.35-24-.92-4.68-2-10.19-6.2-13.3-6.62-4.91-16.19-.31-29.28,3.39,0,0-21.1,5.97-45.39,6-21.75.02-43.34-5.61-46.76-6.52Z"/>
    <path class="cls-5" d="M494.95,607.51c-15.1.87-21.35-.64-26.41-2.93-3.8-1.72-3.72-2.43-13.3-9-16.09-11.02-21.51-12.57-21.47-16.75.03-2.68,3.39-5.33,10.12-10.64,6.54-5.16,12.17-8.05,14.09-9,7.87-3.9,14.5-5.53,16.83-6.07,2.4-.55,11.2-2.43,22.89-1.57,5.49.41,15.63,1.25,27.2,6.85,0,0,10.34,5,18.46,12.98,3.98,3.91,3.41,4.68,8.06,9.03,1.64,1.53,2.68,2.35,2.89,3.76.2,1.35-.23,4.11-6.91,8.47-19.95,13-52.43,14.87-52.43,14.87Z"/>
    <path class="cls-2" d="M445.73,516.42c-16.17-4.31-22.93-8.38-28.57-4.5-8.09,5.57-5.71,21.93-4.7,28.96,4.42,30.49,26.45,49.19,28.96,51.26,5.41,4.46,23.77,19.13,51.07,18.98,25.55-.14,42.85-13.18,49.3-18.2,0,0,20.24-15.73,29.22-42.07,2.7-7.93,3.98-15.7,2.35-24-.92-4.68-2-10.19-6.2-13.3-6.62-4.91-16.19-.31-29.28,3.39,0,0-21.1,5.97-45.39,6-21.75.02-43.34-5.61-46.76-6.52Z"/>
  </g>
  <ellipse class="cls-6" cx="656.56" cy="529.45" rx="40.7" ry="39.91"/>
  <ellipse class="cls-6" cx="320.56" cy="528.14" rx="40.7" ry="39.91"/>
  <path class="cls-2" d="M567.6,476.1c0-2.01.21-15.57,11.22-24.78,13.36-11.18,30.2-5.53,31.83-4.96,18.13,6.43,22.24,25.64,22.43,26.61"/>
  <path class="cls-2" d="M344.29,473.21c0-2.01.21-15.57,11.22-24.78,13.36-11.18,30.2-5.53,31.83-4.96,18.13,6.43,22.24,25.64,22.43,26.61"/>
  <path class="cls-2" d="M501.6,288.67c.83-16.06,1.74-41.76,2.74-58.05.74-12.2,1.53-24.33,2.35-36.39"/>
  <path class="cls-1" d="M541.91,139.06c-2.02,1.41,2.03,7.47,2.35,16.04.38,10.46-4.91,21.84-13.7,28.96-9.16,7.42-24.23,11.89-36.78,5.48-14.95-7.64-17.42-26.17-17.61-27.78-1.24-10.55,2.82-18.44,0-19.96-2.55-1.37-6.37,4.81-14.48,9.39-1.23.69-17.3,9.44-34.04,3.13-1.02-.39-21.19-8.32-22.3-25.04-.79-11.82,8.43-20.44,12.52-24.26,11.63-10.87,26.45-11.98,28.96-12.13,7.58-.46,13.8,1.14,14.09,0,.33-1.32-8.2-2.61-15.26-8.61-7.07-6-13.1-17.08-11.74-29.74.11-1.05,2.2-17.75,17.22-26.22,14.59-8.22,29.42-1.95,34.04,0,3.96,1.67,14.61,6.17,18.98,16.43,3.53,8.3,1.25,16.63,2.54,16.83,1.26.19,2.34-7.83,6.24-15.84,1.88-3.86,8.87-18.2,23.89-23.3,10-3.39,25.14-3.23,35.61,7.04,11.24,11.03,9.63,26.27,9.39,28.17-2.16,17.54-18.04,27.3-20.74,28.96-5.14,3.16-10.39,4.86-10.17,5.48.35,1.01,13.49-6.02,28.96-3.91,4.37.6,17.24,3.05,26.22,14.09,2.43,2.99,8.04,9.89,7.83,19.57-.3,13.15-11.12,21.42-13.3,23.09-12.55,9.59-30.92,9.9-43.43,3.52-8.26-4.21-13.11-10.89-15.26-9.39Z"/>
  <circle class="cls-8" cx="510.31" cy="109.42" r="26.32"/>
  <path class="cls-4" d="M572.69,199.19c9.54-1.16,16.57-.1,22.17.78,6.33,1,9.53,1.55,11.22,3.65,4.99,6.23-2.69,20.82-8.09,28.43-14.79,20.85-38.82,26.56-47.22,28.43-19.83,4.42-43.52,3.11-45.55-3.91-.49-1.71,2.01-5.67,7.05-13.53,4.26-6.65,6.39-9.98,9.29-13.6,4.36-5.46,11.3-14.16,23.48-21.13,3.86-2.21,13.83-7.45,27.65-9.13Z"/>
  <path class="cls-4" d="M438.1,189.6c-9.32-2.33-16.43-2.14-22.1-1.95-6.41.22-9.65.36-11.58,2.24-5.72,5.57.11,20.99,4.53,29.21,12.11,22.51,35.26,31.14,43.36,34.03,19.14,6.82,42.81,8.44,45.68,1.72.7-1.64-1.3-5.88-5.33-14.29-3.41-7.13-5.12-10.69-7.54-14.64-3.65-5.95-9.48-15.44-20.7-23.86-3.56-2.67-12.81-9.09-26.32-12.46Z"/>
</svg>