<?xml version="1.0" encoding="UTF-8"?>
<svg id="_主圖" data-name="主圖" xmlns="http://www.w3.org/2000/svg" viewBox="0 0 1000 1000">
  <defs>
    <style>
      .cls-1 {
        fill: #f1c1a1;
      }

      .cls-2 {
        fill: #fbf5ec;
      }

      .cls-2, .cls-3, .cls-4, .cls-5, .cls-6 {
        stroke: #231815;
        stroke-width: 12px;
      }

      .cls-2, .cls-3, .cls-6 {
        stroke-miterlimit: 10;
      }

      .cls-3, .cls-5 {
        fill: #231815;
      }

      .cls-7 {
        fill: #ef8371;
      }

      .cls-8 {
        fill: #6fa7aa;
      }

      .cls-4, .cls-5 {
        stroke-linecap: round;
        stroke-linejoin: round;
      }

      .cls-4, .cls-6 {
        fill: none;
      }
    </style>
  </defs>
  <g>
    <path class="cls-8" d="M757.03,559.38c-6.19,3.87-9.29,5.81-10.54,4.91-4.65-3.35,27.12-37.82,34.68-73.57,2.5-11.82,13.83-69.59-8.59-143.48-8.49-27.96-26.6-85.02-80.09-133.57-10.61-9.63-42.3-36.79-91.57-54.26-43.4-15.39-79.49-15.84-100.05-15.91-17.19-.06-47.78.05-85.69,10.96-58.21,16.75-95.02,47.86-103.57,55.3-7.96,6.94-39.76,35.52-63.91,84-20.15,40.45-25.28,75.29-28.7,99.91-2.48,17.87-6.16,45.82-1.57,81.91,4.07,31.92,5.88,54.76,22.7,74.09,14.52,16.69,34.5,24.94,34.01,25.74-.37.6-11.17-4.83-22.17-11.87-12.81-8.21-21.03-15.5-33.16-26.36-19.63-17.58-26.97-22.06-26.01-28.89.59-4.22,3.52-4.76,5.36-11.53.45-1.65,3.11-11.45-1.12-19.23-6.23-11.47-21.44-7.56-27-19.42-2.18-4.66-.37-6.4-3.32-11.56-4.44-7.77-12.57-10.86-14.63-11.65-17.52-6.66-37.16,6.9-41.48,9.88-4.9,3.38-25.73,17.77-28.02,44.31-1.73,20.03,7.76,39.28,21.24,49.63,12.98,9.97,29.48,5.02,36.85,17.8,1.61,2.79,1.24,3.62,5.1,12.63,0,0,4.37,10.21,9.53,19.49,10.06,18.11,42.18,43.2,75.9,55.05,9.74,3.42,17.7,6.22,29.15,8.22,15.32,2.67,18.69.73,23.08,4.23,8.59,6.83,3.35,20.33,2.38,51.36-1,32.21,4.17,33.15,1.14,58.09-2.53,20.85-5.88,18.09-8.84,41.95-3.27,26.42.27,34.13-7.52,44.88-7.6,10.5-17.09,11.25-19.07,21.52-1.98,10.29,5.67,19.18,6.16,19.73,7.34,8.27,18.21,8.78,37.54,9.39,17.74.56,27.37.86,39.94-3.52,6.48-2.26,23.2-9.08,35.82-25.32,19.4-24.96,9.43-46.84,26.27-59.11,9.28-6.76,19.87-5.64,37.04-3.88,66.8,6.86,69.69,12.1,96.91,9.71,38.35-3.36,56.73-21.1,69.72-9.71,5.27,4.63,2.89,8.11,13.32,33.28,4.52,10.91,8.6,20.74,15.48,31.11,3.45,5.2,12.55,18.92,25.59,27.66,31.54,21.14,84.17,11.84,94.35-9.73.58-1.22,3.66-8.87.72-16.15-2.58-6.38-7.77-7.39-13.29-14.38-3.72-4.71-5.32-9.26-7.6-17.48-9.33-33.64-13.74-53.67-14.77-84.69-.48-14.57,1.73-10.32,1.76-29.18.08-46.12-13.15-62.88-3.52-75.31,7.86-10.15,19.23-2.29,46.95-8.51,4.59-1.03,57.22-13.58,80.9-54.35,10.25-17.66,8.61-29.47,23.2-39.91,12.16-8.7,19.4-4.86,32.09-14.87,2.6-2.05,18.31-14.85,20.87-36.78,1.99-17.01-5.06-29.86-8.52-35.96-2.75-4.84-12.8-21.97-33.48-29.07-2.45-.84-26.08-8.95-35.14,1.1-5.55,6.16-2.55,15.7-9.93,20.1-3.56,2.12-5.32.54-9.91,2.22-10.48,3.84-14.64,16.98-15.26,18.96-5.08,16.06,6.24,21.37,2.41,34.96-2.76,9.78-8.48,6.5-31.89,30.52-1.3,1.34-7.88,8.12-18.26,14.61Z"/>
    <path class="cls-1" d="M654.48,180.83c14.28-9.3,32.76-24.78,36.75-47.31,4.18-23.58-9.83-41.86-3.39-46.7,6.95-5.23,31.36,10.04,46.43,30.78,17.81,24.5,24.55,59.29,13.83,91.04-6.05,17.92-16.12,30.29-22.81,37.26"/>
    <path class="cls-1" d="M343.77,180.83c-14.28-9.3-32.76-24.78-36.75-47.31-4.18-23.58,9.83-41.86,3.39-46.7-6.95-5.23-31.36,10.04-46.43,30.78-17.81,24.5-24.55,59.29-13.83,91.04,6.05,17.92,16.12,30.29,22.81,37.26"/>
  </g>
  <g>
    <path class="cls-4" d="M875,521.95c-1.36.31-11.02,2.34-19.3-3.32-5.29-3.62-8.15-10.8-8.77-12.68"/>
    <path class="cls-4" d="M827,496.73c.39.77,4.96,9.39,13.57,10.17,9,.82,15.98-7.52,18-14.35,3.37-11.4-5.66-23.53-15.39-28.73-10.48-5.6-24.03-4.37-32.88,3.17-10.3,8.77-9.86,22.36-9.65,28.7.34,10.35,4.17,18.16,6.52,22.17"/>
    <path class="cls-4" d="M829.94,458.12c-.1-3.43.27-9.73,4.37-15.13,7.51-9.88,21.74-9.15,27.14-8.87,23.56,1.22,38.67,20.43,41.47,24,3.98,5.06,16.79,21.36,14.09,43.83-2.47,20.48-16.21,32.75-20.87,36.78-12.5,10.82-25.95,13.87-32.09,14.87"/>
    <path class="cls-4" d="M713,656.38c32.05-1.76,55.77-10.86,69.59-17.45,15.22-7.26,25.81-14.99,30.03-18.2,23.73-18.04,36.15-37.53,39.52-43.04,5.75-9.4,9.5-17.89,11.9-24.1"/>
    <path class="cls-4" d="M807.18,517.86c-17.34,12.89-35.62,24.67-52.95,37.57"/>
    <path class="cls-4" d="M696.93,593.51c12.22-3.74,31.97-11.68,49.57-29.22,5.84-5.83,24.58-25.8,34.68-73.57,2.5-11.82,13.83-69.59-8.59-143.48-8.49-27.96-26.6-85.02-80.09-133.57-10.61-9.63-42.3-36.79-91.57-54.26-43.4-15.39-79.49-15.84-100.05-15.91-17.19-.06-47.78.05-85.69,10.96-58.21,16.75-95.02,47.86-103.57,55.3-7.96,6.94-39.76,35.52-63.91,84-20.15,40.45-25.28,75.29-28.7,99.91-2.48,17.87-6.16,45.82-1.57,81.91,3.7,29.01,6.57,51.57,22.7,74.09,19.7,27.51,47.61,38.82,61.57,43.3"/>
    <path class="cls-4" d="M713,656.38c2.3,18.23,3.76,38.89,3.49,61.57-.18,14.52-1.05,28.13-2.35,40.7"/>
    <path class="cls-4" d="M729.54,856.47c-.5-13.32-1.68-27.93-3.91-43.57-2.89-20.23-7.01-38.41-11.48-54.26"/>
    <path class="cls-4" d="M729.54,856.47c3.41,1.77,8.93,5.14,13.97,11.1,3.64,4.3,10.69,12.63,8.72,20.99-.69,2.94-2.8,7.16-11.74,12.26-6.42,3.66-19.64,9.65-47.24,8.29-21.41-1.05-33.41-1.64-45.37-10.12-4.33-3.07-9.83-8.01-21.39-29.22-6.74-12.36-17.48-35.9-25.52-58.53"/>
    <path class="cls-4" d="M389.36,808.47c8.37,1.93,19.9,4.38,33.72,6.62,39.68,6.43,70.54,6.71,81.06,6.69,39.2-.09,68.29-4.97,75.65-6.26,12.65-2.21,23.24-4.67,31.07-6.66"/>
    <path class="cls-4" d="M655.36,185.74c14.28-9.3,32.76-24.78,36.75-47.31,4.18-23.58-9.83-41.86-3.39-46.7,6.95-5.23,31.36,10.04,46.43,30.78,17.81,24.5,24.55,59.29,13.83,91.04-6.05,17.92-16.12,30.29-22.81,37.26"/>
    <path class="cls-4" d="M125,521.95c1.36.31,11.02,2.34,19.3-3.32,5.29-3.62,7.2-8.44,7.82-10.32"/>
    <path class="cls-4" d="M173,496.73c-.39.77-4.96,9.39-13.57,10.17-9,.82-15.98-7.52-18-14.35-3.37-11.4,5.66-23.53,15.39-28.73,10.48-5.6,24.03-4.37,32.88,3.17,10.3,8.77,9.86,22.36,9.65,28.7-.34,10.35-4.17,18.16-6.52,22.17"/>
    <path class="cls-4" d="M170.06,458.12c.1-3.43-.27-9.73-4.37-15.13-7.51-9.88-21.74-9.15-27.14-8.87-23.56,1.22-38.67,20.43-41.47,24-3.98,5.06-16.79,21.36-14.09,43.83,2.47,20.48,16.21,32.75,20.87,36.78,12.5,10.82,25.95,13.87,32.09,14.87"/>
    <path class="cls-4" d="M287,656.38c-32.05-1.76-55.77-10.86-69.59-17.45-15.22-7.26-25.81-14.99-30.03-18.2-23.73-18.04-36.15-37.53-39.52-43.04-5.75-9.4-9.5-17.89-11.9-24.1"/>
    <path class="cls-4" d="M192.82,517.86c17.34,12.89,34.67,25.78,52.01,38.67"/>
    <path class="cls-4" d="M287,656.38c-2.3,18.23-3.76,38.89-3.49,61.57.18,14.52,1.05,28.13,2.35,40.7"/>
    <path class="cls-4" d="M270.46,856.47c.5-13.32,1.68-27.93,3.91-43.57,2.89-20.23,7.01-38.41,11.48-54.26"/>
    <path class="cls-4" d="M270.46,856.47c-3.41,1.77-8.93,5.14-13.97,11.1-3.64,4.3-10.69,12.63-8.72,20.99.69,2.94,2.8,7.16,11.74,12.26,6.42,3.66,19.64,9.65,47.24,8.29,21.41-1.05,33.41-1.64,45.37-10.12,4.33-3.07,9.83-8.01,21.39-29.22,6.74-12.36,17.39-36.55,25.43-59.19"/>
    <path class="cls-4" d="M344.64,185.74c-14.28-9.3-32.76-24.78-36.75-47.31-4.18-23.58,9.83-41.86,3.39-46.7-6.95-5.23-31.36,10.04-46.43,30.78-17.81,24.5-24.55,59.29-13.83,91.04,6.05,17.92,16.12,30.29,22.81,37.26"/>
  </g>
  <g>
    <ellipse class="cls-2" cx="648.01" cy="379.72" rx="73.83" ry="75.66"/>
    <circle class="cls-5" cx="648.01" cy="379.72" r="27.65"/>
    <ellipse class="cls-2" cx="500.88" cy="290.5" rx="73.83" ry="75.66"/>
    <circle class="cls-5" cx="500.88" cy="290.5" r="27.65"/>
    <ellipse class="cls-2" cx="353.23" cy="377.37" rx="73.83" ry="75.66"/>
    <circle class="cls-5" cx="353.23" cy="377.37" r="27.65"/>
    <path class="cls-3" d="M493.88,547.98c-3.31.29-9.12.99-24.13,5.76-26.85,8.53-28.34,12.65-39.72,12.91-4.23.1-17.84.41-27.78-8.41-11.98-10.63-11.45-28.15-11.15-37.96,1.16-37.99,28.27-63.75,33.46-68.67,8.44-8.02,24.3-20.55,47.74-26.8,25.2-6.72,45.82-2.62,52.77-.98,32.02,7.52,50.68,27.65,56.8,34.44,4.51,5,13.36,15.73,20.09,31.57,4.99,11.76,11.29,26.57,7.82,44.74-1.37,7.18-4.18,21.91-15.98,29.35-16.5,10.4-40.77.33-49.11-3.13-10.62-4.41-13.2-8.09-25.04-10.96-3.69-.89-13.32-2.93-25.76-1.85Z"/>
    <path class="cls-7" d="M455.27,559.44c-9.59,3.48-19.27,6.84-29.22,3.13-2.58-.97-4.11-1.56-5.22-3.13-6.33-8.99,11.69-35.04,31.83-50.06,5.66-4.22,19.29-14.09,39.13-16.46,3.02-.36,12.78-1.34,25.04,1.04,4.26.83,11.71,2.33,20.35,6.78,9.8,5.05,15.94,11.21,21.13,16.43,4.71,4.75,8.31,9.2,10.96,12.79,7.88,10.7,14.74,20.3,12.52,31.04-.55,2.64-.82,3.96-1.83,4.96-6.49,6.41-25.04-9.21-58.96-16.96-10.26-2.35-15.4-3.52-22.7-3.13-7.12.38-10.85,1.88-43.04,13.57Z"/>
    <path class="cls-6" d="M493.88,547.98c-3.31.29-9.12.99-24.13,5.76-26.85,8.53-28.34,12.65-39.72,12.91-4.23.1-17.84.41-27.78-8.41-11.98-10.63-11.45-28.15-11.15-37.96,1.16-37.99,28.27-63.75,33.46-68.67,8.44-8.02,24.3-20.55,47.74-26.8,25.2-6.72,45.82-2.62,52.77-.98,32.02,7.52,50.68,27.65,56.8,34.44,4.51,5,13.36,15.73,20.09,31.57,4.99,11.76,11.29,26.57,7.82,44.74-1.37,7.18-4.18,21.91-15.98,29.35-16.5,10.4-40.77.33-49.11-3.13-10.62-4.41-13.2-8.09-25.04-10.96-3.69-.89-13.32-2.93-25.76-1.85Z"/>
  </g>
</svg>